<svg id="Layer_1" data-name="Layer 1" xmlns="http://www.w3.org/2000/svg" xmlns:xlink="http://www.w3.org/1999/xlink" viewBox="0 0 412.79 321.06"><defs><linearGradient id="linear-gradient" x1="203.08" y1="107.04" x2="195.73" y2="216.21" gradientUnits="userSpaceOnUse"><stop offset="0.01"/><stop offset="0.83" stop-opacity="0.07"/><stop offset="1" stop-opacity="0"/></linearGradient><linearGradient id="linear-gradient-2" x1="189.74" y1="330.35" x2="196.22" y2="210.83" xlink:href="#linear-gradient"/><linearGradient id="linear-gradient-3" x1="318.39" y1="147.24" x2="347.17" y2="147.24" xlink:href="#linear-gradient"/><linearGradient id="linear-gradient-4" x1="312.76" y1="112.11" x2="336.84" y2="121.07" xlink:href="#linear-gradient"/><linearGradient id="linear-gradient-5" x1="331.01" y1="104.54" x2="335.19" y2="104.79" xlink:href="#linear-gradient"/><linearGradient id="linear-gradient-6" x1="335.39" y1="79.21" x2="336.14" y2="93.39" xlink:href="#linear-gradient"/><linearGradient id="linear-gradient-7" x1="332.13" y1="86.98" x2="335.88" y2="95.97" xlink:href="#linear-gradient"/><linearGradient id="linear-gradient-8" x1="344.55" y1="117.51" x2="348.09" y2="117.51" xlink:href="#linear-gradient"/><linearGradient id="linear-gradient-9" x1="333.21" y1="89.97" x2="334.9" y2="105.05" xlink:href="#linear-gradient"/><linearGradient id="linear-gradient-10" x1="203.16" y1="245.95" x2="210.8" y2="316.83" xlink:href="#linear-gradient"/><linearGradient id="linear-gradient-11" x1="211.33" y1="161.98" x2="193.22" y2="194.52" xlink:href="#linear-gradient"/><linearGradient id="linear-gradient-12" x1="201.31" y1="172.48" x2="201.36" y2="173.12" xlink:href="#linear-gradient"/></defs><title>Presenter TV</title><rect width="412.79" height="321.06" rx="20.38" fill="#3880ff" opacity="0.18" style="isolation:isolate"/><g id="WTNKNR" opacity="0.54" style="isolation:isolate"><path d="M216.34,52.91l9.16-2.8a14.34,14.34,0,0,1,2-.54,2.11,2.11,0,0,1,1.38.35c1.91-.67,3.56-1.11,5.24,1.17.61.84,2.66.56,4,.95,2.14.62,4.27,1.31,6.35,2.1.54.21.9.9,1.35,1.38-.59.43-1.17,1.21-1.76,1.22a46.07,46.07,0,0,1-5.49-.4,9.26,9.26,0,0,0-1.57-.23c2.08.92,1.61,5,5.4,4l-1.51-1,.11-.42,3.21.58c.06-2,2.72-3.23,4.87-2.61-.1-1.12-.19-2.23-.32-3.71l3.31.84L250.26,55c.86,1.3,1.76,1.3,2.86.34,2-1.76,4.23-2.75,7-1.73.34.12.8-.16,1.2-.17,1.57-.07,3.14-.08,4.71-.18.36,0,.7-.33,1.34-.66l-2.51-2,.2-.36,11.39,3.34c-1.17-1.68-3.27-2.81-2-4.64,2-2.85,2.9-3,6.14-2a8.21,8.21,0,0,0,.37,6.17c.2.39-.25,1.3-.65,1.75a13.42,13.42,0,0,1-2.1,1.62c2.39.48,4-.77,4.61-3.73l2.82,1,.37-.13c-.42-.43-.76-1.06-1.27-1.25a4.77,4.77,0,0,0-1.83.07c-1.06.07-1.48-.41-1.38-1.49a17.52,17.52,0,0,0-.1-2.42l2.14-1.64v1.84l2.45-.75-.87-.75.12-.4,5.68,1.65.08-.31-2.27-2,.3-.52,6.62-.54L295,43.84a19.66,19.66,0,0,1,10.19-2A10,10,0,0,0,312,40c1.63-1.33,3.64-1.15,5.94.31a1.51,1.51,0,0,0,1.1.25c2.67-1,5.59,0,6.38,2.32l-7.31,2.68.2.68c1.26-.35,2.5-.78,3.78-1a8.34,8.34,0,0,1,2.34,0c2.18.19,4.67-.13,6.45.82s3.33,1.19,4.31.34c2.44-2.13,4.7-.39,7-.44.62,1.35-.36,3.5,1.91,3.67.66,0,1.39-.68,2-1,2.37,0,5.55.94,7.1-.25a7,7,0,0,1,4.89-1.44,33.83,33.83,0,0,1,5.66.64c.53.09,1,.83,1.49,1a21.81,21.81,0,0,0,5.36,1c2.18,0,4.23-.3,5.72,1.72a1,1,0,0,0,.72.32c2.53-.11,5.05-.27,7.58-.35a3,3,0,0,1,1.42.44c-.23,1.45.87,1.37,1.64,1.28.3,0,.49-.94.81-1.61,5.8-.14,11.37,1,16.28,4.94,1.66-1.55,3,.19,4.51,1-1,.94-1.83,2.16-3,2.62-.8.32-2-.37-3-.68a13.12,13.12,0,0,1-2.09-.86c-.64-.32-1.22-.75-1.49-.91l-3.43,2.51,1.55,3.11c-4.45-.75-7.42,1.47-10.61,3.59-1.42-1.84-3.11-.05-4.75-.15-2.22-.14-3,1.5-3.77,2.66.44,1.18.81,2.2,1.26,3.42-1.84.1-2.06,1.07-1.74,1.8l-5.67,6.59c-.51-2.6-1.31-4.85-1.27-7.09a5,5,0,0,1,2.8-4.3c1.75-1,3-2.86,4.78-3.73,1.58-.78,1.71-1.8,1.91-3.2l-3.91,3-.13-.9a12.32,12.32,0,0,0-3.36-.68c-1.18.09-3.1,2.88-3,4-1.47-.1-3,1-4.35-.6-.23-.27-1-.13-1.54-.09a31.55,31.55,0,0,1-4.32.34A5.56,5.56,0,0,0,355.57,69c-1.95,1.89-4.11,3.57-5.85,5.07a7.09,7.09,0,0,0,1.17,1.68,1.75,1.75,0,0,0,1.55.2c1.6-.82,3.08-.14,3,1.7a17.5,17.5,0,0,1-3.8,10.95A38.71,38.71,0,0,1,349,92c-.67.65-1.85,1.4-2.59,1.22-1.65-.4-2.34.7-3.07,1.55a33.14,33.14,0,0,0-2.53,4c1.24,1.64,2.71,3.74,1.64,6.2-.37.86-1.92,1.21-3.18,1.93v-5.56l-1.63-.55.6-2.86-4.43,1,.95-2.9c-.86.49-1.4.75-1.9,1.08a17.85,17.85,0,0,0-2.48,1.8,1.64,1.64,0,0,0-.11,1.38,10.86,10.86,0,0,0,2.15.5l-1,.75h4.1l-4,3.53c1.14,2.54,3.25,4.41,2.19,7.24,0,.11,0,.35,0,.36,2.45.93.47,2.47.1,3.15-1.44,2.73-2.3,5.89-5,7.83a12.85,12.85,0,0,1-1.84,1c-1.9.92-3.81,1.81-5.68,2.69-.58-1.49-1-1.6-2.53-.36a4.53,4.53,0,0,0,.79,7.82c.69.35,1.76-.06,2.93,0-2.55,1.68-1.6,4.24-2,6.45a1,1,0,0,1-.23.57c-1.49,1.32-3,2.63-4.05,3.56L311,138.89c-.26,2.38-2.12,4.4-.88,7.1a12.76,12.76,0,0,0,2.55,4.23,4.7,4.7,0,0,1,1.51,4.07,11.33,11.33,0,0,0,.74,3.37,5.71,5.71,0,0,1-4.14-5.44,5,5,0,0,0-.69-2.72c-1.65-1.9-1.43-4-1.43-6.26a80.43,80.43,0,0,0-1.1-9.67l-3,1.72a53.2,53.2,0,0,0-1.43-5.54,44.77,44.77,0,0,0-2.27-4.49c-1.09.24-2.47.53-3.83.87-.31.08-.75.22-.87.47-1.71,3.52-4.69,6-7.13,8.9a4.5,4.5,0,0,0-.47,2.69,13.18,13.18,0,0,1-3.27,9.53c-2.31-7.35-5.29-14.14-5.08-21.3-.82.29-1.89,1-2.51.77s-2.09-1.34-.81-2.29l-3.8-4.45c-3.33-.3-7.52,1.68-10.62-2.3-2.55.9-4.73-.1-6-3-.1-.25-.16-.59-.36-.73-.68-.48-1.59-1.41-2.08-1.24-1.24.45-.71,1.53-.24,2.42s.9,1.54,1.25,2.35.56,1.64.92,2.72l.56-1.26.4,0,.21,2.6c2,.41,2,.41,5.23-2.7-.07,1.85.41,3.13,2.3,3.88a2,2,0,0,1,.89,3.23c-1.47,2-2,4.69-4.4,6.15-3.89,2.32-7.59,5-11.44,7.34-.93.58-1.6.05-1.78-1.17-.41-2.82-.49-5.75-2.23-8.22-.51-.72-1-1.47-1.44-2.21-.29-.44-.8-.88-.8-1.33-.06-3.83-2.72-6.6-4-9.93a5.77,5.77,0,0,0-.71-1.06l-2.67.62c1.2-2.07.73-3.09-2-3.93.95-.56,1.55-1.2,2.19-1.24a2.45,2.45,0,0,0,2.47-2.26c.41-2,.88-3.93,1.34-6-2-.9-4,2.13-5.43-.78-1.39,1.53-2.63.93-3.8,0a5.75,5.75,0,0,1-1.26-5.9,11.82,11.82,0,0,0-2.4.16,7.69,7.69,0,0,0-1.74,1.15c1.19,1.36,2.31,3.19-.3,5.15a6.74,6.74,0,0,1-1.15-1.5c-.83-2.12-1.44-4.33-2.35-6.41-.35-.8-1.27-1.36-1.95-2-1-.9-1.92-1.79-2.89-2.67a17.05,17.05,0,0,0-1.82-1.48c-.14-.1-.81.22-.81.36a3.84,3.84,0,0,0,.23,1.93,13,13,0,0,0,4.8,4.76,3.18,3.18,0,0,1,1.39,1.58l-1.48-.3-.65,3.32-.68,0c.91-2.53-1-3.47-2.32-4.79s-2.5-2.56-3.7-3.88c-.67-.73-1.17-1.5-2.32-.57s-2.3,1.8-4,1c-.89-.41-1.47.08-1.58,1.23a3.13,3.13,0,0,1-1.2,1.86c-1.33,1.07-2.43,1.94-2.45,4a3.69,3.69,0,0,1-3.31,3.28c-.93.15-1.84.38-2.42.5l-4-1.71V92.34c1.17-.09,2.5-.26,3.83-.27s2.72.12,4,.19c1.86-3.78-.06-6-3.16-7.45,1-1.61,3.56.79,3.54-1.24a32.28,32.28,0,0,0,3.46-2.2c1.62-1.37,3-3,4.69-4.29a10.16,10.16,0,0,1,3-1c.92-1.67-2.62-4.91,2.24-5.67-.25,1-.51,2-.66,2.94-.08.48-.13,1.24.14,1.46a3.39,3.39,0,0,0,2,.77c2.52,0,5.05-.19,7.56-.43a8.5,8.5,0,0,0,2.25-.89c.29-4.13.65-4.48,3.57-2.92,0-.82.26-1.67,0-2.06-1.17-1.48-.28-1.75.95-1.88,1.53-.17,3.07-.3,4.61-.44l-.06-1a17.49,17.49,0,0,0-2.29,0,18.36,18.36,0,0,0-2.61.63c-1.51.48-3.12,0-3.54-1.21s-.84-3.09.92-4.24a40.11,40.11,0,0,0,3.34-2.69,2.72,2.72,0,0,0-4.21.45,16.44,16.44,0,0,1-2.28,2.37c-.68.67-1.66,1.2-2,2a2.6,2.6,0,0,0,.46,2.39c1.26,1.08.82,1.74-.07,2.69-.63.68-.93,1.66-1.53,2.38-.95,1.15-2,2.2-3.2,3.46-1-2-1.88-3.56-2.59-5.15-.51-1.14-1.11-1.23-2.06-.53-1.11.82-2.57,1.94-3.59.52s-1.92-3.52-1.45-4.8S208.5,62,210,60.9a32.85,32.85,0,0,0,3.84-2.8,44.61,44.61,0,0,0,3.46-4.3l-.85-.24Z" transform="translate(-2.61 -2.74)" fill="#3880ff"/><path d="M40.61,74.91,36,76.1l1.6-3.3c-1.47,1.53-3.19,2-3.37,4,0,.41-.67.83-1.11,1.13C31.53,79,29.9,80,28.35,81.08c-.21.15-.11.73-.12.78l-5.39.7c1-.58,1.9-1.09,2.79-1.56a21,21,0,0,0,2.82-1.48,14,14,0,0,0,2-2.14L30,76.8H25.76l-.3-1.65c-1.94.17-4.19-1.18-3.94-2.56a4,4,0,0,1,2-2.23,9.58,9.58,0,0,1,3.06-.52l-.25-1.64c-2.42.32-4.82,1.16-6.55-1.21,1.82-2.12,4.32-.88,6.6-.81l0-.58L20.6,63.14c.24-.3.33-.53.49-.6,3.22-1.24,6.41-2.63,9.7-3.63,1.25-.37,2.78.08,4.16.28,4.33.63,8.66,1.31,13,2a20.74,20.74,0,0,1,3,.78,2.57,2.57,0,0,0,2.57-.29c1.61-1,3.85-.91,5.83-1.24.71-.11,1.44-.08,2.53-.14.53.36,1.15,2.24,2.57.42l.68.64a14.52,14.52,0,0,1,3-.23,55.73,55.73,0,0,1,5.85,1.09c.51.12.91.7,1.19,1.3,2.22.89,5.07-1,7.32,1.38l-.7-2c2.53.25,5.17.58,7.83.76a5.44,5.44,0,0,0,2.32-.52c1.32-.56,2.12-.21,2.51,1.18l2.43-1.75a15.5,15.5,0,0,1-1.71-1.51A14.28,14.28,0,0,1,94,59.23l2.17-1.12a.25.25,0,0,1,.2,0l4.38,4.4c.74-.51,2-1.84,1.84,1,0,.29.41.76.72.86a1.13,1.13,0,0,0,1-.37c.63-.91,1.14-1.9,1.85-3.13l3.18.74v3.22l-2.25,1.43.25.54L105,65.59c-1.17,1.57-2,3-4,3.89s-3.49,2.87-4.89,4.63c-.54.68-1.36,2.31.82,2.84.61.14,1,1.34,1.12,1.57l10.18,3.83,2,5.12c2.58-.86,2.58-.86,1.49-4.89,3.82-2.49,3.88-2.82,1.55-5.4V71.56c3-.54,5.82.45,8.54,2.44-.25,1.44.46,3,2.1,3,1,0,2.1-1.49,3.53-2.61.75,1.69,1.59,3.67,2.54,5.6.28.59.83,1.41,1.33,1.47,1.71.19,2.63,1.51,3.85,2.38a2.45,2.45,0,0,1,1.05,1.67c0,.45-.72,1-1.23,1.35A12.72,12.72,0,0,1,126.53,89c-1.42-.09-2.94,1.31-4.32,2.25,1.78.23,3.35-1.91,5.43-.14l-1.84,1.09a15.11,15.11,0,0,0,2.9,3c.49.29,1.67-.58,2.78-1l.58,1-6,3.15-.37-.2,1-2c-3.59.19-6.09,2.43-5.68,5.14-3.15.87-3.15.87-5.46,5.67l-.61-2-.27,0c.19,1.06.34,2.13.58,3.19A2.73,2.73,0,0,1,114,111.3a16,16,0,0,0-3.63,3.49,4.31,4.31,0,0,0-.5,2.84c.19,1.48.82,2.91,1,4.39a9.91,9.91,0,0,1-.28,2.62l-.74.1a43.59,43.59,0,0,1-1.71-4.49c-.33-1.26-.34-2.23-2.21-2.17-1.61.06-3.25-.73-5.2-1.23.7,2.24-.14,2.4-1.35,1.91-3.41-1.39-6.3.6-6.26,4.3,0,2.36-.17,4.72,0,7.07a5,5,0,0,0,1.14,2.8,3.67,3.67,0,0,0,2.46,1.26c1.36,0,3-.09,3.34-2,.1-.54.17-1.08.28-1.82l3.55-.69c-.67,3-1.24,5.54-1.88,8.34,1-.11,1.82-.19,2.62-.29,2.17-.27,3.17.84,2.83,2.95-.36,2.29-.93,4.69,1.29,6.46.39.31,1.2.64,1.49.45,1.65-1.05,2.79-.61,3.84.89A9.91,9.91,0,0,0,116,150c.68-3.49,3.47-4.51,6-5.83l-.33,3.65.36,0,1.35-3.35c2.36,1.36,4.42,3,7.2,1.77a1.53,1.53,0,0,1,1.33.27c1.54,1.37,3,2.87,4.51,4.23A4.8,4.8,0,0,0,138.7,152c4.53.58,5.59,1.53,6.94,5.92a4.19,4.19,0,0,0,2.09,2.34c1.49.62,3.18.5,4.25,2.23.35.56,2,.22,3.08.45a13.14,13.14,0,0,1,3,1c1.07.53,2,1.29,3.08,1.91a3.68,3.68,0,0,1,.92,4.41c-1.14,1.76-2.48,3.39-3.66,5.13a3,3,0,0,0-.65,1.83c.46,3.51-1.13,6.49-2.38,9.54a2.6,2.6,0,0,1-1.41,1.07c-1.43.58-2.94,1-4.36,1.59a3.87,3.87,0,0,0-2.47,3.58c-.25,2-1.52,3.84-2.46,6l-.61-1.28c-1.56,3-2.84,6.56-7.58,3.83.92,1.82,2.91,3.28.83,4.74-1.33.94-3.11,1.23-4.88,1.88-.25,1.46-.67,3.13-2.91,1.77a15.24,15.24,0,0,1-.71,3.77,14.51,14.51,0,0,1-2.42,2.85,5.84,5.84,0,0,0,1.09.74c1.22.48,1.06,1.08.24,1.8a7.26,7.26,0,0,0-1.36,1.22c-2.16,3.2-1.72,4.72,1.9,6.75-3.12,1.37-8.18.27-9.5-2.08-1.52-2.68-1.51-6,.16-7.33l-1.16-.47,1.53-3.87.54,1.65c.07-.08.19-.15.19-.22,0-1.41,1.5-3-.57-4.13a.42.42,0,0,1-.14-.37c.34-1.89.33-4,1.15-5.64,1.28-2.59,1.27-5.26,1.55-8,.4-3.86,1-7.7,1.56-11.55a4.08,4.08,0,0,0-2.46-4.72c-3.37-1.3-4.4-4.26-5.81-7.05-1.09-2.17-2.54-4.18-3.47-6.41-.43-1,0-2.43.33-3.66-.77-2.15-.45-3.32,1.28-5.34a11.64,11.64,0,0,0,2-3.62,2.45,2.45,0,0,0-1.18-2.95c-1-.76-1.5-2.28-2.49-3.93l-1.28,2.75c-1.62-1.19-3.41-2.4-5.06-3.78-.42-.35-.29-1.29-.61-1.83a7,7,0,0,0-3.78-3.45,11.85,11.85,0,0,1-3.55-2.54c-.88-.77-1.56-1.54-2.84-.67a1.69,1.69,0,0,1-1.49,0c-2.33-1.27-4.65-2.59-6.9-4a3.33,3.33,0,0,1-1.78-3.6,4.23,4.23,0,0,0-.86-2.66c-1.69-2.52-3.58-4.91-5.29-7.42-.68-1-1-2.25-1.62-3.31a11.21,11.21,0,0,0-1.41-1.68l-.82.48,6,11.9-.77.4c-.75-1.44-1.47-2.9-2.28-4.31a4.75,4.75,0,0,0-1.1-1.14c-.68-.59-2.12-.82-1-2.24.12-.15-.11-.63-.27-.91a50.74,50.74,0,0,1-2.49-4.65,5.44,5.44,0,0,0-3.11-3.29c-.56-.22-.92-1-1.29-1.64-2.45-3.94-4.13-8-3.24-12.88.29-1.56-.09-3.24-.18-5.07l1.65-.34.36-.48A27.34,27.34,0,0,0,63,88.45c-2.3-1.1-3.47-3-4.5-5.17-.44-.89-.66-1.9-2-1-.19.12-1-.27-1.14-.58a3.9,3.9,0,0,1-.47-2.44c.45-1.11.14-1.51-.81-1.81-2.45-.79-4.89-1.66-7.37-2.33-1.87-.51-3.8-.75-5.9-1.14Z" transform="translate(-2.61 -2.74)" fill="#3880ff"/><path d="M194.65,115.41c1.56.72,3.36.58,5.47-.12a48.36,48.36,0,0,1,8.8-1.55,32.46,32.46,0,0,1,4.1,0c-.46,1.46-.82,2.59-1.33,4.19a19.07,19.07,0,0,1,3.38.81c1.59.67,3.07,1.59,4.61,2.39.36.19.76.31,1.13.51,1,.55,1.5.23,1.71-.87.33-1.71,1.37-2.25,3-1.66a37.31,37.31,0,0,0,4.64,1.58,10.28,10.28,0,0,0,3.54-.06c1-.15,1.77-.26,2.3,1,1.55,3.59,3.26,7.12,4.9,10.67.09.18.27.38.25.56-.37,2.7,1.85,4.41,2.67,6.66.48,1.33,2.1,2.22,3.09,3.41.45.53.51,1.37.92,1.95.57.82.87,2,2.46,1.52,2-.65,4.08-1,6.48-1.61a11,11,0,0,1-.58,3.19c-1.77,3.52-3.39,7-6.64,9.74-2.54,2.13-4.21,5.31-6.2,8.06-.21.29,0,.89.06,1.34.13.77.27,1.55.45,2.31a24.14,24.14,0,0,1,.7,2.72,40,40,0,0,1,.38,6.45c0,.69-1.22,1.35-2,2s-1.45,1-2.15,1.53c-1.74,1.32-2.51,2.77-1.37,5a2.3,2.3,0,0,1-1.51,3.3,14,14,0,0,0-1.4.67c.13,5-5.15,10.41-10.06,10.52a12.65,12.65,0,0,0-3.43.63c-1.67.52-2.24-.49-2.66-1.73-.53-1.59-.62-3.49-1.59-4.72-1.51-1.91-1.78-4.09-2.4-6.23a24,24,0,0,0-2-5.67c-1.84-3.08-.77-5.75.44-8.58a5.65,5.65,0,0,0,.35-3c-.3-1.91-.88-3.79-1.36-5.68a2.86,2.86,0,0,0-.48-1.32,8,8,0,0,1-2.1-9c.49-1.4-.89-2.45-2.48-2.31-1.11.1-2.12.3-2.53-1.28-.44-1.73-2.08-1.3-3.11-.94-2.52.9-4.94,1.95-7.7,1.3a2.14,2.14,0,0,0-.81.13c-1.1.21-2.6,1-3.23.53a38.18,38.18,0,0,1-5.3-5c-1-1.09-1.6-2.61-2.7-3.56-1.86-1.6-1.46-3.37-1.2-5.4a44.57,44.57,0,0,0-.08-6.11,3.79,3.79,0,0,1,.14-1.73c1.17-2.28,2.45-4.51,3.7-6.75.06-.11.13-.3.22-.32,3-.4,3.62-2.61,4-5.09a3,3,0,0,1,1-1.47C192.24,117.39,193.3,116.56,194.65,115.41Z" transform="translate(-2.61 -2.74)" fill="#3880ff"/><path d="M120.58,43.5h4.23l0-.3L118.54,42l.08-.65c2.47-1.46,5.82-.37,8.15-2.22l-.13-.6-2.24-.31-.08-.43c.81-.26,1.61-.58,2.44-.78,3-.7,5.48-2.81,8.69-2.56a10.47,10.47,0,0,1,2.23.79l3.53-.73-.1-.57,5.24,1.42.08-.27-2.06-1.51.16-.6c8.76-.52,17.54-2,26.41,1.13l-3.95.84.19.73a9.76,9.76,0,0,1,1.54-.55,17,17,0,0,1,2.13-.12l-1.4,2c4-1.23,7.87-2.57,12-1-3.5,1.78-7.23,3.07-9.56,6l3.58,1.63-.18.55-1.81.36c.15,1.62.81,3.34.29,4.56-.78,1.88-2.71,2-4.56,1-1.11,1.32-.61,2.18.65,2.76a2.86,2.86,0,0,1,1.87,3.22l-3.51-1.3-1,1.3,3.87.43a23.49,23.49,0,0,1-8.95,3.84,5.76,5.76,0,0,0-2.65,1.55c-1.53,1.64-3,3.16-5.51,3.06-1.33-.06-1.88.67-1.81,2,0,.47.08,1.18-.19,1.38-2.27,1.69-1.59,4.64-3.13,6.93-.49-.23-1-.51-1.61-.76s-1.47-.61-2.19-.94c-.47-.22-1.11-.37-1.33-.75q-1.85-3.14-3.51-6.38c-1-1.87-1.8-3.79-2.75-5.81l3.64-2c.78-2.62-2.33-1.81-3.65-3.4l3.33.36.15-.47c-1.1-.32-2.23-.57-3.3-1A2.59,2.59,0,0,1,136.3,53c-.16-.37.26-1,.42-1.52l.62-.06a36.08,36.08,0,0,0-4.2-5.1c-.95-.82-2.65-.95-4-1s-3.1.57-4.59.38a16.69,16.69,0,0,1-4-1.61Z" transform="translate(-2.61 -2.74)" fill="#3880ff"/><path d="M335.6,180.6a25.45,25.45,0,0,0,1.78-2c1.58-2.17,2.6-2.37,4-.35a12.65,12.65,0,0,0,1.6-1.85,4.37,4.37,0,0,1,5-2.16,28.94,28.94,0,0,0,2.95.45,6.27,6.27,0,0,0-.92,1.11c-.56,1.06-.95,2.09.46,2.92s2.81,1.85,4.69,3.11c.54-3.28,1-6.06,1.46-8.83l.44-.08c.23.42.48.84.67,1.28,1.18,2.72,2.32,5.46,3.55,8.16.2.45.8.69,1.14,1.09.7.79,1.35,1.62,2,2.43A25.72,25.72,0,0,0,367,189c3,2.64,2.64,8.2.14,11.46a7.77,7.77,0,0,0-1.47,3.57c-.35,2.68-2.77,2.62-4.35,3.19s-3.37,0-5-.4a5.7,5.7,0,0,1-2.33-2,15.62,15.62,0,0,1-1.65-2.57,16.13,16.13,0,0,1-.75-1.75l-1.8,1.93c-1.45-1.26-1.93-3.28-4.29-3.72-3.4-.64-6.08.66-8.87,2.06a6.88,6.88,0,0,1-1.43.6,28.51,28.51,0,0,0-4.68,1.11c-1.65.74-2.56,0-3.69-1,2-2.67-.46-4.82-.7-7.21-.18-1.85-.67-3.67-.85-5.52-.22-2.22,1.8-2.75,3.15-3.65a6.08,6.08,0,0,1,2.9-.88c2.52-.18,3.31-1.82,3.64-4Z" transform="translate(-2.61 -2.74)" fill="#3880ff"/><path d="M115.43,65c1.19.06,1.09,0,1.42-1a3.54,3.54,0,0,1,1.2-1.31c1.13-.93,1.08-2,0-2.76-1.7-1.31-3.51-2.46-5.26-3.67-.49.42-1,1.14-1.34,1.09-3.23-.42-6.43-1-9.65-1.5l0-.6,1-.43c-.07-.09-.13-.23-.21-.25-2.24-.55-2.61-1.67-1.14-3.43a3.46,3.46,0,0,1,4-1.31c-1.64,1.64-1.67,3.14.18,4.47-.06-1-.5-2.18-.09-2.89a4,4,0,0,1,2.56-1.32,2,2,0,0,1,1.68.92c.47,1.59,1.47,1.66,2.7,1.24a4.67,4.67,0,0,1,4.7.86c1.32,1,3.11,1.25,4.6,2a10.71,10.71,0,0,1,2.58,2c.21.21-.08.9-.13,1.37l-.63.39,6.86,3.7L127.81,66l-3.23-2.9-1,1.41c1.55,1.41,4,2.2,3.3,5.57l-3.53-2-.36.36,3.32,2-.88,1.06c-2-.83-4.24-.81-5.74-2.84A4.58,4.58,0,0,0,115.06,67c-.61.07-1.29-.54-1.94-.84.61-1,1.21-2,1.87-3,0,0,1,.35,1,.48A5.83,5.83,0,0,1,115.43,65Z" transform="translate(-2.61 -2.74)" fill="#3880ff"/><path d="M104.91,39.36c.27-.33.51-.91.82-1,1.69-.22,3.39-.31,5.09-.44l0-.56a46.91,46.91,0,0,1-6-.06,37.59,37.59,0,0,1-5.41-1.52l.1-.8c2.27-.26,4.55-.51,6.83-.79,1.73-.2,3.45-.57,5.19-.64,4.62-.19,9.25-.33,13.88-.32a33.18,33.18,0,0,1,5.25.9c-3.72,1.61-6.72,3.47-10,4.18-3.53.77-4.85,4.41-8.47,4.93l1.2,1.67H101.46l-.09-.65,4.22-1.79-2-.88,0-.64,4.4-.23-3.15-1.47Z" transform="translate(-2.61 -2.74)" fill="#3880ff"/><path d="M77,55.71l-5.52-.31,0-.44,1.44-.83-2.33-.59c.68-2,2.48-2.33,4.17-2.68.3-.06.71.47,1.2.82a6.36,6.36,0,0,1,6.38,1.69l-.52-2.49,3.67-1.19c-.81,3.33-.66,3.58,4,7.2l-1.76.47.64,1.21c-1.15,0-2.23.3-3-.06-1.79-.83-3.33.08-4.92.39s-3,.87-4.48-.59c-.78-.75-2.32-.72-3.51-1l0-.76L77,56.05Z" transform="translate(-2.61 -2.74)" fill="#3880ff"/><path d="M349.05,163.79c1.51-2.1,3-2.82,5.17-1.46,1.42.88,3.26,1.07,4.73,1.9a28.61,28.61,0,0,1,3.83,3.1l-1,1.36,4.22,3.82c-2.13-.27-3.73-.64-4.79-2.48-.8-1.38-2.22-1.1-3.36.1a2.88,2.88,0,0,1-2.34.62,16.75,16.75,0,0,1-3.28-1.43c.85-2.35.46-3.13-2.42-4.16-1-.35-2-.58-3-.86a.65.65,0,0,0-.2,0c.31-2.15-2.56-2.65-2.26-4.73,0,.29.07.58.13,1.07C348,158.22,347.56,162.21,349.05,163.79Z" transform="translate(-2.61 -2.74)" fill="#3880ff"/><path d="M329,150.78l2.21,2.06c-.55.85-1.45,1.67-1.55,2.58s.65,1.82.87,2.36c-.74,1.71-1.55,3.27-2.07,4.91-.44,1.42-.84,2.28-2.42,1.17a2.81,2.81,0,0,0-1.37-.34c-2.74-.13-3.4-.64-4.18-3.55a16.69,16.69,0,0,1-.28-2.64C322.47,157.75,326.53,153.68,329,150.78Z" transform="translate(-2.61 -2.74)" fill="#3880ff"/><path d="M255,174.75c.43,1.49,1,2.74.2,4.65-1.19,2.75-1.5,5.87-2.36,8.78a5.06,5.06,0,0,1-1.72,2.48c-.41.3-1.95,0-2.08-.41-.48-1.34-1.15-3.05-.68-4.16a6.29,6.29,0,0,0,.6-4c-.28-1.44.14-2.27,1.79-3S253.51,176.36,255,174.75Z" transform="translate(-2.61 -2.74)" fill="#3880ff"/><path d="M201.24,80.8l-6.61,1,2-1.86-1.23-.57.49-2.27,1.26-1.14a9.15,9.15,0,0,0-1.41-1.25c-2.22-1.23-2.84-3.84-1.07-5.37a2.82,2.82,0,0,1,2.49-.31,2.3,2.3,0,0,1,.9,2.11,1.77,1.77,0,0,0,.52,2.23,46.25,46.25,0,0,1,3.52,4.36,1.59,1.59,0,0,1,0,1.2A14.66,14.66,0,0,1,201.24,80.8Z" transform="translate(-2.61 -2.74)" fill="#3880ff"/><path d="M304.89,153c3.81.42,9,5.78,10.95,9.13l1-.71c0,1.48.07,2.77-.05,4a1.58,1.58,0,0,1-.92,1.06,1.26,1.26,0,0,1-1.14-.39c-2-2.73-3.87-5.52-5.84-8.25-.75-1-1.65-1.94-2.46-2.92C305.93,154.28,305.42,153.61,304.89,153Z" transform="translate(-2.61 -2.74)" fill="#3880ff"/><path d="M275.94,41c-2.3.5-4.6,1-6.88,1.52A13.39,13.39,0,0,0,262,47c-.37.45.47,1.92.78,3a7.45,7.45,0,0,1-6-1.84c1.4-1.3,2.75-2.49,4-3.76,2.43-2.44,5.43-3.12,8.74-3.21a22.5,22.5,0,0,0,4-.87c.75-.16,1.51-.22,2.26-.32Z" transform="translate(-2.61 -2.74)" fill="#3880ff"/><path d="M170.83,66h-2.1l2.35-2.13,1.32,1.75c1.88-.54,3.64-1.34,5.43-1.43.8,0,1.91,1.21,2.38,2.13.17.34-1,1.63-1.73,2.1a8.65,8.65,0,0,1-3.74,1.38c-1.27.07-2.58-.59-3.88-.93,1.17-1.56-.28-1.46-1.49-1.65l1.59-.85Z" transform="translate(-2.61 -2.74)" fill="#3880ff"/><path d="M349.26,107.69l-.53-1.92-3.88,1-.28-.59a11.46,11.46,0,0,1,2.95-1.51c2.23-.41,2.26-.29,3.27-2.3.81-.31,1.58-.36,1.77-.72.64-1.17,1.05-2.47,1.6-3.7.33-.72.76-1.39,1.14-2.08.41.8,1.24,1.65,1.14,2.39a25.41,25.41,0,0,1-1.48,6.1c-.28.71-1.66,1-2.52,1.46S350.58,106.89,349.26,107.69Z" transform="translate(-2.61 -2.74)" fill="#3880ff"/><path d="M63.73,52.94l1.44-4.24c2.36-.48,7.15.29,8.38,1.39l-7,4.74Z" transform="translate(-2.61 -2.74)" fill="#3880ff"/><path d="M104.85,39.3c-2.16,2.61-5.17,3.43-7.2,1.9-.31-.23-.4-.76-.67-1.33l-2.79-.68c1-2.9,2.23-3.24,4.73-2,1.91.91,4,1.49,6,2.21Z" transform="translate(-2.61 -2.74)" fill="#3880ff"/><path d="M215.79,38.86,218,38c-2.06.26-4,.54-5.32-1.79,5.15-.81,10-.17,14.24,2.85-1.33.93-2.11.76-3.3-.47a2.2,2.2,0,0,0-1.6-.32c-.34,0-.67.43-1,.69C218.69,40.8,218.69,40.8,215.79,38.86Z" transform="translate(-2.61 -2.74)" fill="#3880ff"/><path d="M111.49,47.48c-.9.38-1.81,1.08-2.71,1.08-3,0-6-.25-9-.43-.87-.05-2.31-2.43-1.8-3,.24-.27,1.15-.43,1.26-.28,1.92,2.7,4.69,1.82,7.26,1.82h4.82Z" transform="translate(-2.61 -2.74)" fill="#3880ff"/><path d="M75.65,48.18l1.95-.67,0-.38-5.35.44c1.4-2.69,1.55-2.82,3.35-2.3,1.54.45,3,1,4.6,1.51l.19-2.15c1.26.45,2.2.75,3.12,1.12.34.13.91.47.88.61-.08.4-.37,1-.67,1.06-2.63.5-5.28.89-7.93,1.31Z" transform="translate(-2.61 -2.74)" fill="#3880ff"/><path d="M390.4,209.89l1.87,1.1-2.94,3a5,5,0,0,0-.8.87c-1.69,2.71-1.69,2.72-5.32,1.33Z" transform="translate(-2.61 -2.74)" fill="#3880ff"/><path d="M304.27,35.52l-3.48.81c-.1-2.2,2.94-3.15,6.85-2.24-.53,2.71,1.93.45,2.43,1.57-.2,1.55-1.75,2.12-4.68,1.48-.53-.11-.93-.77-1.4-1.17Z" transform="translate(-2.61 -2.74)" fill="#3880ff"/><path d="M337.79,158c-1.05,2-3.28.4-5.1,1.34L333,161l2.83-1,.19.33-1.7,1.46,1.61,4.28-.5.27-2.51-3.49c-.08,1.23-.15,2.41-.25,4-1.6-2.41-1.46-5.78.07-8.94Z" transform="translate(-2.61 -2.74)" fill="#3880ff"/><path d="M189.4,75.79c1.75-.45,2.92-3.6,4.93-1-.16,1-.32,1.91-.43,2.79-.14,1.06-3.57,2.66-4.38,2a1.06,1.06,0,0,1-.29-.87c.17-.5.68-.93.73-1.42S189.61,76.29,189.4,75.79Z" transform="translate(-2.61 -2.74)" fill="#3880ff"/><path d="M87.8,51.11l2.2.62-1.34-1.88,5.06-.73-1.14,2c2.07,1.39,2,1.59-1.06,3.26l-4-2.73Z" transform="translate(-2.61 -2.74)" fill="#3880ff"/><path d="M316.72,167l8.94,1-.45.69,2.2,1.16C324.24,170.37,318.06,169,316.72,167Z" transform="translate(-2.61 -2.74)" fill="#3880ff"/><path d="M357.47,75.5c.43,2.52.85,5,1.29,7.59-1.56.58-1.81,1.55-.91,4.26l-1.33.35c0-.26-.09-.45-.1-.63-.09-2.57-.28-5.14-.2-7.71a21.11,21.11,0,0,1,.86-3.93Z" transform="translate(-2.61 -2.74)" fill="#3880ff"/><path d="M360.37,92.46l-3,2c-.74-.23-2-1.65-2.61,1l-.49-.42a6.56,6.56,0,0,1,.28-2c.57-1.21,1.33-2.34,2.06-3.58Z" transform="translate(-2.61 -2.74)" fill="#3880ff"/><path d="M336.48,143.35l-2.73-1,.21,1.77c-.33-.13-.65-.17-.66-.26-.3-2.05-1.54-4-.47-6.17.2-.4.6-1,.93-1s1,.61,1,.87c-.3,2.09-1.41,4.42,2,5.07Z" transform="translate(-2.61 -2.74)" fill="#3880ff"/><path d="M350.81,42.56c.69-.46,1.22-1.11,1.77-1.12,2.14,0,4.28.1,6.42.23.25,0,.56.34.69.6s-.15.5-.33.64C358.37,43.67,352.37,43.56,350.81,42.56Z" transform="translate(-2.61 -2.74)" fill="#3880ff"/><path d="M396.54,206.5l-3.39,4.62c-.53-1.31-.87-2.15-1.3-3.23.22-.61.55-1.57.95-2.7Z" transform="translate(-2.61 -2.74)" fill="#3880ff"/><path d="M115.61,135.07c-.6-3.19-4-1.89-5.53-3.53l-2.37,1.08c1.37-2.71,3.9-2.22,11.23,2Z" transform="translate(-2.61 -2.74)" fill="#3880ff"/><path d="M89.51,45.48c.55-.39.89-.81,1.12-.76.71.16,1.69.34,2,.83a2.2,2.2,0,0,1-.66,1.93c-1,.82-5.67-1.27-6.26-2.95Z" transform="translate(-2.61 -2.74)" fill="#3880ff"/><path d="M100.28,50.24c-.85.49-1.7,1-2.56,1.45-.22.11-.5.1-.74.19-.51.18-1,.38-1.51.57-.2-.62-.65-1.29-.54-1.84s.75-1.29,1.21-1.33a26,26,0,0,1,3.83.21Z" transform="translate(-2.61 -2.74)" fill="#3880ff"/><path d="M336.1,150.11H335l-.17-.35,4-2.08c1.76,1.43.33,3-.63,4.83Z" transform="translate(-2.61 -2.74)" fill="#3880ff"/><path d="M110.54,69.62l-6.62.32C105.29,67.16,105.36,66.09,110.54,69.62Z" transform="translate(-2.61 -2.74)" fill="#3880ff"/><path d="M66.43,45.22l7.08-2.53c-.05,2.26-.06,2.09-2,2.15a20.66,20.66,0,0,0-4,1,3.19,3.19,0,0,1-1-.14Z" transform="translate(-2.61 -2.74)" fill="#3880ff"/><path d="M119,136.45l1.89.24L120.3,135c1.9.07,3.88-.31,5.48,2.13H119Z" transform="translate(-2.61 -2.74)" fill="#3880ff"/><path d="M229.8,35.17c-2.92,2.61-5.69.33-8.52,0Z" transform="translate(-2.61 -2.74)" fill="#3880ff"/><path d="M84.82,40.11c1.92-.74,5.22.43,6.42,2.65a25.58,25.58,0,0,0-2.79-.92,13.79,13.79,0,0,0-2.16-.14Z" transform="translate(-2.61 -2.74)" fill="#3880ff"/><path d="M309.9,38.62c1.64-2.56,3.9-2.87,6.6-.59Z" transform="translate(-2.61 -2.74)" fill="#3880ff"/><path d="M359.45,209.78c1,.16,1.67.24,2.3.36s1.05.21,1.57.31a6.09,6.09,0,0,1-.51,1.63,9.09,9.09,0,0,1-1.58,1.39Z" transform="translate(-2.61 -2.74)" fill="#3880ff"/><path d="M288.89,147.38a15.79,15.79,0,0,1,1.52,2.94c.12.44-.58,1.11-.9,1.68-.44-.43-1.2-.82-1.27-1.31a16,16,0,0,1,.1-3.16Z" transform="translate(-2.61 -2.74)" fill="#3880ff"/><path d="M343.8,111.76c-.29-1.43-.5-2.51-.8-4,.49,0,1.43-.25,1.64,0C345.63,109.14,345.11,110.39,343.8,111.76Z" transform="translate(-2.61 -2.74)" fill="#3880ff"/><path d="M265.28,32.39c-.23,2.16-1.7,2.64-5.11,1.66Z" transform="translate(-2.61 -2.74)" fill="#3880ff"/><path d="M334.56,128.42l-1.31,3.93c-1.5-2.08-.25-3,.66-4.09Z" transform="translate(-2.61 -2.74)" fill="#3880ff"/><path d="M114.26,51.18c-1.24-.41-2.94,1.5-3.9-1.29l4,.53Z" transform="translate(-2.61 -2.74)" fill="#3880ff"/><path d="M209.85,99.08a12.09,12.09,0,0,1-.09-2.16c0-.33.55-.59.84-.89.23.29.68.62.64.86a19.15,19.15,0,0,1-.71,2.39Z" transform="translate(-2.61 -2.74)" fill="#3880ff"/><path d="M214.43,100.67h2.65v2.13l-2.85-1.59Z" transform="translate(-2.61 -2.74)" fill="#3880ff"/><path d="M97.27,48.55,94,47.74l-.11-.59a11,11,0,0,1,2.43-.48C96.59,46.67,96.81,47.57,97.27,48.55Z" transform="translate(-2.61 -2.74)" fill="#3880ff"/><path d="M340.43,169.76l-4.12,2.74C336.86,170.66,338.08,169.85,340.43,169.76Z" transform="translate(-2.61 -2.74)" fill="#3880ff"/><path d="M91.94,40.4l3.49,1C93.91,42.9,93.07,42.7,91.94,40.4Z" transform="translate(-2.61 -2.74)" fill="#3880ff"/><path d="M367.54,165.23c-.59,2-1.81,2.46-3.56,1.23Z" transform="translate(-2.61 -2.74)" fill="#3880ff"/></g><rect x="291.34" y="53.45" width="84.44" height="102.55" fill="#fff"/><rect x="291.34" y="53.45" width="84.44" height="102.55" fill="#3880ff" opacity="0.39" style="isolation:isolate"/><path d="M172.16,141.22c-1.59,9.18-2.18,18.67-5.81,27.25-1.8,4.26-4.32,8.2-6,12.51s-2.49,9.24-.74,13.52a17.67,17.67,0,0,0,3.52,5.25c8.2,8.94,20.76,12.57,32.85,13.61a43.37,43.37,0,0,0,11.83-.31c4.51-.86,8.73-2.83,13.19-3.92a28.82,28.82,0,0,0,5.89-1.69c5.16-2.52,7.24-8.91,7.2-14.66s-1.64-11.41-1.5-17.15c.17-7.14,3-13.93,4.16-21a54,54,0,0,0,.08-15.45c-.68-5.32-2.1-10.79-5.68-14.79a26.26,26.26,0,0,0-7.42-5.43,51.87,51.87,0,0,0-29.22-6.25c-8.81.77-14.15,5.46-18,13.55A58.44,58.44,0,0,0,172.16,141.22Z" transform="translate(-2.61 -2.74)" fill="#3f3d56"/><path d="M171.6,183.09c-2.22,4.28-4.81,9-3.67,13.65a15.79,15.79,0,0,0,3.93,6.52c5,5.64,11.59,10.34,19.09,11.24,6.19.74,12.37-1.16,18.22-3.33,7.26-2.7,15.18-6.77,17.17-14.25,1.36-5.11-.47-10.44-1.66-15.6-1.87-8.19-2.12-16.67-1.94-25.07,0-2.59.12-5.29-.93-7.66-1.72-3.86-6-5.91-10.17-6.74-9.63-1.92-23.24,1.79-29.45,10-2.56,3.38-2.83,7.76-3.59,11.78A70.77,70.77,0,0,1,171.6,183.09Z" transform="translate(-2.61 -2.74)" fill="url(#linear-gradient)"/><path d="M176.39,197.19s-18.61,3.28-22.11,8.88,9.21,68.82,9.21,68.82H230s8.75-51.52,8.4-56.07,0-18.45-17.31-20.38S176.39,197.19,176.39,197.19Z" transform="translate(-2.61 -2.74)" fill="#3880ff"/><path d="M176.39,197.19s-18.61,3.28-22.11,8.88,9.21,68.82,9.21,68.82H230s8.75-51.52,8.4-56.07,0-18.45-17.31-20.38S176.39,197.19,176.39,197.19Z" transform="translate(-2.61 -2.74)" fill="url(#linear-gradient-2)"/><polygon points="318.39 138.41 319.04 156.13 330.29 156.13 333.03 150.76 334.66 156 346.28 156 347.17 138.35 318.39 138.41" fill="#3f3d56"/><polygon points="318.39 138.41 319.04 156.13 330.29 156.13 333.03 150.76 334.66 156 346.28 156 347.17 138.35 318.39 138.41" fill="url(#linear-gradient-3)"/><path d="M330.89,90.08s-10.88,5.25-11.13,7S321,141.15,321,141.15s3.53,4.58,14.35,4.58c11.08,0,13.93-3.17,14.43-4.65s2.26-43.7,2-45.5-10.28-5.48-10.28-5.48Z" transform="translate(-2.61 -2.74)" fill="#3880ff"/><path d="M336.83,104.24s-12.27,15.07-13.09,14.26-3.88-22.09-4-21.44c-.17,1.24.54,21.58,1,32.92-1.6,11.93,20.32-13.93,20.32-13.93S339.18,105.78,336.83,104.24Z" transform="translate(-2.61 -2.74)" fill="url(#linear-gradient-4)"/><polygon points="332.16 96.63 332.81 112.75 335.16 112.75 335.72 96.73 332.16 96.63" fill="#3f3d56"/><polygon points="332.16 96.63 332.81 112.75 335.16 112.75 335.72 96.73 332.16 96.63" fill="url(#linear-gradient-5)"/><path d="M334.18,102.9a3.87,3.87,0,0,1,.7-.7,3.06,3.06,0,0,1,1.14-.41,10.93,10.93,0,0,1,1.71-.2,1,1,0,0,1,.48.06.72.72,0,0,1,.33.36,6.53,6.53,0,0,1,.25,2,8.94,8.94,0,0,0,.36,1.22,9,9,0,0,1,.24,1.86,2.47,2.47,0,0,1-.06.94,1.85,1.85,0,0,1-1.6,1.11c-.68.07-1.21.51-1.9.43a8.89,8.89,0,0,0-2.77.13c-1.13.24-1.93-2.47-1.59-3.35a5.23,5.23,0,0,1,1-1.34Z" transform="translate(-2.61 -2.74)" fill="#eacbc6"/><path d="M331.9,84.84s-.06,3,0,5.15c0,1.62.59,4.73,4,4.73s3.86-4,3.79-4.73a20.29,20.29,0,0,0,0-3.46C339.47,84.64,332.09,83.52,331.9,84.84Z" transform="translate(-2.61 -2.74)" fill="#eacbc6"/><path d="M331.91,87.85s.84,4.92,3.37,4.73,4.5-3.52,4.5-3.52l-.07-2.53Z" transform="translate(-2.61 -2.74)" fill="url(#linear-gradient-6)"/><circle cx="333.75" cy="90.87" r="3.33" fill="#3f3d56"/><circle cx="333.75" cy="90.87" r="3.33" fill="url(#linear-gradient-7)"/><path d="M321.79,95.09a15,15,0,0,0-4,3.94c-1.72,2.54-9.31,33.79,1.94,30.23,2.39-.76,16.28-17.56,16.28-17.56s-3.28-4.28-5.42-5.68c0,0-6.38,7.86-7.12,7.12S321.79,95.09,321.79,95.09Z" transform="translate(-2.61 -2.74)" fill="#3880ff"/><path d="M351.79,95.58s4.94,20.76,5.32,24.29-2.87,11.94-4.89,11.37c-4.48-1.26-3.77-8.92-3.77-8.92Z" transform="translate(-2.61 -2.74)" fill="#3880ff"/><path d="M354.9,134.38a.86.86,0,0,1,.9-.26,1.33,1.33,0,0,1,.65.84c1,2.53.88,4.77,1,7.36a23.89,23.89,0,0,1-.13,5.67c-.34,1.59-5,5.57-5.71,5.1s.78-1.84,1.72-2.63,1-2.79,1.13-3.43-1.4-.64-1-2.55c.31-1.41.92-2.1.82-3.58a25.68,25.68,0,0,1,.17-5.26,2.59,2.59,0,0,1,.36-1.12A.53.53,0,0,1,354.9,134.38Z" transform="translate(-2.61 -2.74)" fill="#eacbc6"/><path d="M349.8,127.9c-.08.32,3.91,13.42,3.91,13.42a7.75,7.75,0,0,0,4.55-1s-.52-18.39-1-19.67-1.35-1-5.46.49S349.8,127.9,349.8,127.9Z" transform="translate(-2.61 -2.74)" fill="#3880ff"/><polygon points="344.55 107.29 347.81 127.74 348.09 119.59 344.55 107.29" fill="url(#linear-gradient-8)"/><path d="M327.83,76.13s1.41,11.53,5.91,13.31,7.49-3.19,8.34-7.21a40.16,40.16,0,0,0,.65-8.53s-3-5.72-8.62-3.28S327.93,74.35,327.83,76.13Z" transform="translate(-2.61 -2.74)" fill="#eacbc6"/><path d="M327.32,78.8A.71.71,0,0,0,327,79a1.31,1.31,0,0,0-.17.6,4.15,4.15,0,0,0,.69,2.67,1.94,1.94,0,0,0,.76.7.9.9,0,0,0,.9,0,.48.48,0,0,0,.17-.2,1,1,0,0,0,0-.51C329.12,80.94,328.85,78.32,327.32,78.8Z" transform="translate(-2.61 -2.74)" fill="#eacbc6"/><path d="M343.39,78.43a.64.64,0,0,1,.33.22,1.28,1.28,0,0,1,.17.6,4.18,4.18,0,0,1-.69,2.67,2.1,2.1,0,0,1-.76.7.9.9,0,0,1-.9,0,.44.44,0,0,1-.17-.21.85.85,0,0,1,0-.5C341.59,80.56,341.86,78,343.39,78.43Z" transform="translate(-2.61 -2.74)" fill="#eacbc6"/><path d="M327.66,71.37c0-.52.25-1.19.76-1.15a3.87,3.87,0,0,1,.66-1.46,1.28,1.28,0,0,1,1.45-.4,5.8,5.8,0,0,1,3.21-2.46,8.68,8.68,0,0,1,3.59-.18,8.27,8.27,0,0,1,3.24,1,10.76,10.76,0,0,1,3,3l1.13,1.49a1.23,1.23,0,0,1,.34.83c0,.31-.29.54-.44.81a3,3,0,0,0-.26,1,17.1,17.1,0,0,1-2,5.15,9.2,9.2,0,0,0-.44-4.71,2.22,2.22,0,0,1-1.95.23,11.56,11.56,0,0,1-1.86-.85,9.69,9.69,0,0,0-3.28-.92,3.17,3.17,0,0,0-2.29.46,6.63,6.63,0,0,1-.77.65,3.09,3.09,0,0,1-1.29.19,1.34,1.34,0,0,0-1.15.51c-.14.24-.14.54-.31.76s-.14.89-.31,1c-.4.33-.17,2.49-.25,2.94C327.51,78,327.57,72.82,327.66,71.37Z" transform="translate(-2.61 -2.74)" fill="#3f3d56"/><rect x="329.55" y="92.82" width="8.54" height="5.19" fill="#3880ff"/><rect x="329.55" y="92.82" width="8.54" height="5.19" fill="url(#linear-gradient-9)"/><rect x="44.48" y="277.51" width="327.08" height="42.16" fill="#d1a67c"/><rect x="44.48" y="277.51" width="326.62" height="22.7" fill="url(#linear-gradient-10)"/><rect x="36.37" y="272.65" width="350.25" height="7.64" fill="#b88e60"/><path d="M178.08,196.28a2.64,2.64,0,0,0-1.69.91,2.26,2.26,0,0,0,0,1.87c1.71,5,6.36,8.64,11.42,10.27s10.49,1.54,15.78,1c3.17-.29,6.41-.74,9.17-2.31,3.72-2.11,6.08-5.95,8.27-9.63-3.51-1.72-7.21-3.74-9-7.23-2-4-1-8.79-1.28-13.26a4.66,4.66,0,0,0-.58-2.18,4.51,4.51,0,0,0-1.94-1.47c-6.26-2.9-14.21-2-16.47,5C189.38,186.87,186.66,194,178.08,196.28Z" transform="translate(-2.61 -2.74)" fill="#f7ad7e"/><path d="M210.86,179.17c-1.14,4.82-3.89,10.73-10.45,11.49s-8.45-5.27-8.89-10.45c.1-.3.2-.6.29-.9a9,9,0,0,1,7-6.27l5.14-.09a16.87,16.87,0,0,1,4.37,1.35,4.45,4.45,0,0,1,1.94,1.47,4.67,4.67,0,0,1,.58,2.19C210.84,178.36,210.85,178.76,210.86,179.17Z" transform="translate(-2.61 -2.74)" fill="url(#linear-gradient-11)"/><path d="M203.92,173l-5.14.09A13.62,13.62,0,0,1,203.92,173Z" transform="translate(-2.61 -2.74)" fill="url(#linear-gradient-12)"/><path d="M179.94,142.29s-.26,36.21,15.48,39.62,23.62-12.6,24.93-18.63,2.36-27,2.36-27a16.52,16.52,0,0,0-16-8.66C195.16,128.38,179.15,128.9,179.94,142.29Z" transform="translate(-2.61 -2.74)" fill="#f7ad7e"/><path d="M224.32,144.23a2.05,2.05,0,0,1,.89-.43,1.59,1.59,0,0,1,1.06.26,2.62,2.62,0,0,1,1.07,2,6.79,6.79,0,0,1-.36,2.35,16.87,16.87,0,0,1-4.33,7.83c-.45.42-1.15.81-1.63.42a1.35,1.35,0,0,1-.36-1C220.25,151.37,220.49,147,224.32,144.23Z" transform="translate(-2.61 -2.74)" fill="#f7ad7e"/><path d="M207.13,143.61a22.87,22.87,0,0,1-12.7,6,42,42,0,0,1-14.22-.61,41.31,41.31,0,0,1-.48-9.61,14,14,0,0,1,3.81-8.65,17.88,17.88,0,0,1,5.48-3.31A38.17,38.17,0,0,1,204.49,124c4.43,0,9.76,1.22,13.18,4.23,2.22,1.95-.69,3.06-2.09,4.49a39,39,0,0,0-3.9,5.05A40.57,40.57,0,0,1,207.13,143.61Z" transform="translate(-2.61 -2.74)" fill="#3f3d56"/><path d="M162.19,209.45a5,5,0,0,0-7.91-3.38,24.51,24.51,0,0,0-7.93,11.27c-1.75,5.94-17.27,49-17.5,54-.35,8.05,10.85,7,10.85,7l55.63-1.05s1.75,2.45,10.85-1,8.75-11.55-14.7-12.94a242.88,242.88,0,0,1-40.23-5.6l7-11.9S163.8,222.82,162.19,209.45Z" transform="translate(-2.61 -2.74)" fill="#f7ad7e"/><path d="M232.6,235.35" transform="translate(-2.61 -2.74)" fill="#f7ad7e"/><path d="M235.22,206s8.05,5.6,9.45,10.85,15.74,52.48,15.39,56-3.15,4.55-8.4,4.2S175,273.84,175,273.84s-5.95-5.6,5.25-8,59.83-7.34,59.83-7.34L230,236.4S228.22,211.21,235.22,206Z" transform="translate(-2.61 -2.74)" fill="#f7ad7e"/><path d="M97.81,186.74a1.24,1.24,0,0,0,0-2.47,1.24,1.24,0,0,0,0,2.47Z" transform="translate(-2.61 -2.74)" fill="#3880ff"/><path d="M213.86,133.84c1.44.51,2.16,2.16,2.32,3.69a36.7,36.7,0,0,0,.32,4.58c.62,2.58,2.84,4.52,3.63,7,.61,1.93.33,4,.58,6a11.7,11.7,0,0,0,5,8.14L228.34,153a66.2,66.2,0,0,0,2.18-10.85,22.21,22.21,0,0,0-1.47-10.87,13.46,13.46,0,0,0-7.72-7.5c-3-1-6.7-.45-8.4,2.16a5.27,5.27,0,0,0-.59,4.42" transform="translate(-2.61 -2.74)" fill="#3f3d56"/><rect x="17.6" y="26.87" width="97.97" height="25.36" fill="#3880ff"/><text transform="translate(49.65 45.81)" font-size="17.5" fill="#fff" font-family="AvenirNext-Bold, Avenir Next" font-weight="700">LIVE </text><circle cx="37.99" cy="39.84" r="4.94" fill="#fff"/></svg>